<?xml version="1.0" encoding="UTF-8"?>
<svg xmlns="http://www.w3.org/2000/svg" xmlns:xlink="http://www.w3.org/1999/xlink" width="1000pt" height="1000pt" viewBox="0 0 1000 1000" version="1.1">
<g id="surface1">
<path style="fill:none;stroke-width:4.545443;stroke-linecap:butt;stroke-linejoin:miter;stroke:rgb(39.215686%,56.078431%,100%);stroke-opacity:1;stroke-miterlimit:10;" d="M 0 147 L 1000 861 "/>
<path style="fill:none;stroke-width:6.262797;stroke-linecap:butt;stroke-linejoin:miter;stroke:rgb(100%,69.019608%,0%);stroke-opacity:1;stroke-miterlimit:10;" d="M 566.441406 283.265625 L 688.394531 812.589844 L 319.144531 446.929688 L 566.441406 283.265625 "/>
<path style=" stroke:none;fill-rule:nonzero;fill:rgb(39.215686%,56.078431%,100%);fill-opacity:1;" d="M 862.441406 33 C 862.441406 41.527344 855.527344 48.441406 847 48.441406 C 838.472656 48.441406 831.558594 41.527344 831.558594 33 C 831.558594 24.472656 838.472656 17.558594 847 17.558594 C 855.527344 17.558594 862.441406 24.472656 862.441406 33 "/>
<path style="fill:none;stroke-width:6.682133;stroke-linecap:butt;stroke-linejoin:miter;stroke:rgb(47.058824%,36.862745%,94.117647%);stroke-opacity:1;stroke-miterlimit:10;" d="M 819 0 L 934 1000 "/>
<path style="fill:none;stroke-width:5.122048;stroke-linecap:butt;stroke-linejoin:miter;stroke:rgb(47.058824%,36.862745%,94.117647%);stroke-opacity:0.764977;stroke-miterlimit:10;" d="M 745.015625 247 C 745.015625 352.496094 659.496094 438.015625 554 438.015625 C 448.503906 438.015625 362.984375 352.496094 362.984375 247 C 362.984375 141.503906 448.503906 55.984375 554 55.984375 C 659.496094 55.984375 745.015625 141.503906 745.015625 247 "/>
<path style="fill:none;stroke-width:9.180667;stroke-linecap:butt;stroke-linejoin:miter;stroke:rgb(100%,69.019608%,0%);stroke-opacity:0.568054;stroke-miterlimit:10;" d="M 0 315 C 0 315 244 342 519 1000 "/>
<path style=" stroke:none;fill-rule:nonzero;fill:rgb(100%,69.019608%,0%);fill-opacity:1;" d="M 429.0625 632 C 429.0625 794.40625 297.40625 926.0625 135 926.0625 C -27.40625 926.0625 -159.0625 794.40625 -159.0625 632 C -159.0625 469.59375 -27.40625 337.9375 135 337.9375 C 297.40625 337.9375 429.0625 469.59375 429.0625 632 "/>
<path style="fill:none;stroke-width:8.23774;stroke-linecap:butt;stroke-linejoin:miter;stroke:rgb(99.607843%,38.039216%,0%);stroke-opacity:1;stroke-miterlimit:10;" d="M 852 0 L 50 1000 "/>
<path style="fill:none;stroke-width:9.328918;stroke-linecap:butt;stroke-linejoin:miter;stroke:rgb(47.058824%,36.862745%,94.117647%);stroke-opacity:1;stroke-miterlimit:10;" d="M 695 0 L 58 1000 "/>
<path style=" stroke:none;fill-rule:nonzero;fill:rgb(100%,69.019608%,0%);fill-opacity:1;" d="M 693.855469 360 C 693.855469 425.089844 641.089844 477.855469 576 477.855469 C 510.910156 477.855469 458.144531 425.089844 458.144531 360 C 458.144531 294.910156 510.910156 242.144531 576 242.144531 C 641.089844 242.144531 693.855469 294.910156 693.855469 360 "/>
<path style=" stroke:none;fill-rule:nonzero;fill:rgb(39.215686%,56.078431%,100%);fill-opacity:0.351896;" d="M 188.691406 322 C 188.691406 382.027344 140.027344 430.691406 80 430.691406 C 19.972656 430.691406 -28.691406 382.027344 -28.691406 322 C -28.691406 261.972656 19.972656 213.308594 80 213.308594 C 140.027344 213.308594 188.691406 261.972656 188.691406 322 "/>
<path style="fill:none;stroke-width:2.800035;stroke-linecap:butt;stroke-linejoin:miter;stroke:rgb(86.27451%,14.901961%,49.803922%);stroke-opacity:0.633929;stroke-miterlimit:10;" d="M 866 506 L 384 592 "/>
<path style="fill:none;stroke-width:0.381509;stroke-linecap:butt;stroke-linejoin:miter;stroke:rgb(39.215686%,56.078431%,100%);stroke-opacity:0.60342;stroke-miterlimit:10;" d="M 0 742 C 0 742 220 18 501 1000 "/>
<path style="fill:none;stroke-width:0.351564;stroke-linecap:butt;stroke-linejoin:miter;stroke:rgb(39.215686%,56.078431%,100%);stroke-opacity:1;stroke-miterlimit:10;" d="M 0 867 L 1000 936 "/>
<path style="fill:none;stroke-width:0.73408;stroke-linecap:butt;stroke-linejoin:miter;stroke:rgb(100%,69.019608%,0%);stroke-opacity:1;stroke-miterlimit:10;" d="M 27 663 L 26 986 "/>
<path style="fill:none;stroke-width:1.395894;stroke-linecap:butt;stroke-linejoin:miter;stroke:rgb(47.058824%,36.862745%,94.117647%);stroke-opacity:0.596317;stroke-miterlimit:10;" d="M 882.0625 429.921875 L 925.238281 391.636719 L 934.566406 204.617188 L 882.0625 429.921875 "/>
<path style="fill:none;stroke-width:3.769313;stroke-linecap:butt;stroke-linejoin:miter;stroke:rgb(39.215686%,56.078431%,100%);stroke-opacity:0.419873;stroke-miterlimit:10;" d="M 0 588 L 1000 729 "/>
<path style="fill:none;stroke-width:9.5598;stroke-linecap:butt;stroke-linejoin:miter;stroke:rgb(47.058824%,36.862745%,94.117647%);stroke-opacity:1;stroke-miterlimit:10;" d="M 701 516 L 421 707 "/>
<path style="fill:none;stroke-width:1.154334;stroke-linecap:butt;stroke-linejoin:miter;stroke:rgb(39.215686%,56.078431%,100%);stroke-opacity:0.213719;stroke-miterlimit:10;" d="M 144 757 L 342 266 "/>
<path style=" stroke:none;fill-rule:nonzero;fill:rgb(99.607843%,38.039216%,0%);fill-opacity:1;" d="M 828.964844 971 C 828.964844 984.234375 818.234375 994.964844 805 994.964844 C 791.765625 994.964844 781.035156 984.234375 781.035156 971 C 781.035156 957.765625 791.765625 947.035156 805 947.035156 C 818.234375 947.035156 828.964844 957.765625 828.964844 971 "/>
<path style=" stroke:none;fill-rule:nonzero;fill:rgb(99.607843%,38.039216%,0%);fill-opacity:1;" d="M 961.960938 121 C 961.960938 229.226562 874.226562 316.960938 766 316.960938 C 657.773438 316.960938 570.039062 229.226562 570.039062 121 C 570.039062 12.773438 657.773438 -74.960938 766 -74.960938 C 874.226562 -74.960938 961.960938 12.773438 961.960938 121 "/>
<path style="fill:none;stroke-width:2.983432;stroke-linecap:butt;stroke-linejoin:miter;stroke:rgb(99.607843%,38.039216%,0%);stroke-opacity:0.0465148;stroke-miterlimit:10;" d="M 684 0 C 684 0 141 1000 303 229 "/>
<path style="fill:none;stroke-width:2.604391;stroke-linecap:butt;stroke-linejoin:miter;stroke:rgb(86.27451%,14.901961%,49.803922%);stroke-opacity:0.0973882;stroke-miterlimit:10;" d="M 763 96 C 763 96 904 548 254 97 "/>
<path style="fill:none;stroke-width:3.748408;stroke-linecap:butt;stroke-linejoin:miter;stroke:rgb(86.27451%,14.901961%,49.803922%);stroke-opacity:1;stroke-miterlimit:10;" d="M 261 0 C 261 0 950 1000 416 589 "/>
<path style="fill:none;stroke-width:6.208027;stroke-linecap:butt;stroke-linejoin:miter;stroke:rgb(47.058824%,36.862745%,94.117647%);stroke-opacity:0.0606334;stroke-miterlimit:10;" d="M 167 249 L 611 857 "/>
<path style="fill:none;stroke-width:1.497423;stroke-linecap:butt;stroke-linejoin:miter;stroke:rgb(86.27451%,14.901961%,49.803922%);stroke-opacity:1;stroke-miterlimit:10;" d="M 260 0 L 851 1000 "/>
</g>
</svg>